<svg width="154" height="50" viewBox="0 0 154 50" fill="none" xmlns="http://www.w3.org/2000/svg">
<path d="M36.992 37.632C36.992 39.8507 37.4827 40.96 38.464 40.96C39.5307 40.96 41.3867 39.6373 44.032 36.992C44.7147 36.3093 45.44 35.4773 46.208 34.496C46.976 33.5147 47.5733 33.024 48 33.024C48.8533 33.024 49.28 33.792 49.28 35.328C49.3227 36.8213 48.896 38.336 48 39.872C47.104 41.3653 45.9307 42.752 44.48 44.032C43.072 45.2693 41.4933 46.2933 39.744 47.104C37.9947 47.9147 36.288 48.32 34.624 48.32C32.1067 48.32 30.3573 47.7013 29.376 46.464C28.4373 45.184 27.968 43.712 27.968 42.048C27.968 40.384 28.1173 38.7413 28.416 37.12C28.928 34.56 30.4213 29.6107 32.896 22.272C34.048 18.7733 34.624 16.1493 34.624 14.4C34.624 12.6507 34.2827 11.264 33.6 10.24C32.96 9.216 31.9573 8.704 30.592 8.704C29.2693 8.704 27.968 9.17334 26.688 10.112C25.408 11.008 24.2133 12.2027 23.104 13.696C21.0987 16.2987 19.3067 19.712 17.728 23.936C16.192 28.1173 15.1893 31.744 14.72 34.816C15.5307 38.7413 15.936 41.3013 15.936 42.496C15.936 44.9707 15.0613 46.6347 13.312 47.488C12.5013 47.872 11.712 48.2347 10.944 48.576C10.2187 48.9173 9.42933 49.088 8.576 49.088C6.44267 49.088 5.376 47.0613 5.376 43.008C5.376 38.912 6.50667 30.9333 8.768 19.072C9.57867 14.8053 9.984 12.416 9.984 11.904C9.984 8.448 9.10933 6.72001 7.36 6.72001C6.76267 6.72001 6.208 6.89067 5.696 7.232C5.22667 7.57334 4.736 7.936 4.224 8.32C3.75467 8.704 3.264 9.06667 2.752 9.408C2.24 9.74934 1.64267 9.92001 0.96 9.92001C0.32 9.92001 0 9.34401 0 8.19201C0 5.84534 1.088 3.92534 3.264 2.432C5.35467 0.896002 7.89333 0.128002 10.88 0.128002C15.0613 0.128002 17.408 2.176 17.92 6.272C18.0907 7.46667 18.1547 8.768 18.112 10.176V10.624C19.7333 7.50934 21.6747 4.97067 23.936 3.008C26.24 1.00267 28.9067 3.8147e-06 31.936 3.8147e-06C36.1173 3.8147e-06 39.1467 1.10934 41.024 3.328C44.9493 8.064 44.7573 15.872 40.448 26.752C39.5947 28.9707 38.8053 31.0187 38.08 32.896C37.3547 34.7733 36.992 36.352 36.992 37.632ZM72.026 42.688C68.6553 46.656 64.602 48.64 59.866 48.64C55.1727 48.64 51.6527 47.4453 49.306 45.056C46.9593 42.624 45.8073 39.616 45.85 36.032C45.8073 30.9547 47.4073 26.5813 50.65 22.912C53.8927 19.2427 58.138 17.408 63.386 17.408C65.7753 17.408 67.6953 17.7067 69.146 18.304C71.6633 19.328 72.922 20.288 72.922 21.184C72.922 21.8667 71.1513 22.2293 67.61 22.272C64.1113 22.272 61.1673 23.488 58.778 25.92C56.4313 28.3093 55.258 31.3387 55.258 35.008C55.258 36.928 55.8127 38.5493 56.922 39.872C58.074 41.152 59.674 41.792 61.722 41.792C63.8127 41.792 65.5407 41.3653 66.906 40.512C63.8767 38.464 62.362 35.4987 62.362 31.616C62.3193 29.568 63.0447 27.712 64.538 26.048C66.074 24.3413 68.0153 23.488 70.362 23.488C72.7513 23.4453 74.458 24.0853 75.482 25.408C76.506 26.7307 77.018 28.4373 77.018 30.528C77.018 32.576 76.5273 34.752 75.546 37.056H75.93C77.8073 37.0133 79.4287 36.352 80.794 35.072C81.306 34.56 81.7327 34.112 82.074 33.728C82.458 33.344 82.842 33.152 83.226 33.152C83.8233 33.152 84.122 33.856 84.122 35.264C84.122 37.8667 83.354 39.8293 81.818 41.152C80.282 42.432 78.5753 43.072 76.698 43.072C74.8633 43.072 73.306 42.944 72.026 42.688ZM71.45 35.264C72.1753 33.728 72.538 32.2347 72.538 30.784C72.538 29.3333 72.0687 28.608 71.13 28.608C70.746 28.608 70.426 28.8853 70.17 29.44C69.914 29.9947 69.786 30.528 69.786 31.04C69.786 32.7467 70.3407 34.1547 71.45 35.264ZM91.032 19.968C91.032 22.8267 90.52 26.0693 89.496 29.696C89.5813 31.0613 89.624 32.384 89.624 33.664C89.624 34.944 89.7093 36.0533 89.88 36.992C90.52 38.6987 91.3307 39.744 92.312 40.128C93.1653 40.128 94.104 39.4027 95.128 37.952C96.152 36.4587 97.1973 34.688 98.264 32.64C97.752 30.6773 97.496 28.8213 97.496 27.072C97.496 24 97.9653 21.76 98.904 20.352C100.056 18.56 101.805 17.664 104.152 17.664C106.499 17.664 108.056 18.56 108.824 20.352C109.123 21.0347 109.272 21.8027 109.272 22.656C109.272 24.192 108.888 25.7707 108.12 27.392C107.352 28.9707 106.115 31.0613 104.408 33.664C105.176 35.9253 106.328 37.056 107.864 37.056C109.741 37.0133 111.363 36.352 112.728 35.072C113.24 34.56 113.667 34.112 114.008 33.728C114.392 33.344 114.776 33.152 115.16 33.152C115.757 33.152 116.056 33.856 116.056 35.264C116.056 37.9093 115.288 39.8507 113.752 41.088C112.259 42.2827 110.36 42.88 108.056 42.88C105.027 42.88 102.616 41.5573 100.824 38.912C95.832 45.3973 91.6507 48.64 88.28 48.64C86.9573 48.64 85.656 46.7627 84.376 43.008C83.096 39.2533 82.1147 34.176 81.432 27.776C80.92 23.7227 81.2187 20.8213 82.328 19.072C83.2667 17.7067 85.1013 17.024 87.832 17.024C88.856 17.024 89.6453 17.344 90.2 17.984C90.7547 18.5813 91.032 19.2427 91.032 19.968ZM152.466 33.024C153.234 33.024 153.618 34.0053 153.618 35.968C153.618 37.0347 153.17 38.336 152.274 39.872C151.378 41.3653 150.205 42.752 148.754 44.032C147.346 45.2693 145.767 46.2933 144.018 47.104C142.269 47.9147 140.562 48.32 138.898 48.32C136.637 48.32 135.122 46.336 134.354 42.368C133.245 44.2027 131.794 45.7173 130.002 46.912C128.21 48.064 125.799 48.64 122.77 48.64C119.783 48.64 117.373 47.7013 115.538 45.824C113.703 43.9467 112.807 41.664 112.85 38.976C112.85 31.7227 115.261 26.0053 120.082 21.824C122.13 20.0747 124.029 18.9227 125.778 18.368C127.57 17.8133 129.447 17.536 131.41 17.536C133.373 17.536 134.973 17.8773 136.21 18.56C136.807 17.3227 137.49 16.704 138.258 16.704C139.751 16.704 141.159 17.3653 142.482 18.688C143.847 19.968 144.53 21.184 144.53 22.336C143.933 23.744 143.058 25.4293 141.906 27.392C141.565 29.3547 141.394 32.1067 141.394 35.648C141.394 39.1893 141.842 40.96 142.738 40.96C143.847 40.96 146.535 38.7413 150.802 34.304C151.57 33.4507 152.125 33.024 152.466 33.024ZM122.258 36.864C122.258 40.1493 123.474 41.792 125.906 41.792C128.509 41.7493 130.663 40.3627 132.37 37.632C132.967 36.6933 133.458 35.5413 133.842 34.176C133.842 29.3973 134.269 25.3013 135.122 21.888C131.666 22.5707 128.658 24.2347 126.098 26.88C123.538 29.5253 122.258 32.8533 122.258 36.864Z" fill="black"/>
</svg>
