<svg width="80" height="80" viewBox="0 0 80 80" fill="none" xmlns="http://www.w3.org/2000/svg">
<g clip-path="url(#clip0_3_21)">
<path d="M40 80C62.0914 80 80 62.0914 80 40C80 17.9086 62.0914 0 40 0C17.9086 0 0 17.9086 0 40C0 62.0914 17.9086 80 40 80Z" fill="#F15A24"/>
<path d="M24.63 61.65C23.38 61.65 22.13 61.54 20.86 61.31C19.59 61.08 18.55 60.82 17.72 60.52V53.83C18.51 53.91 19.34 53.97 20.21 54.03C21.08 54.09 21.91 54.11 22.7 54.11C23.68 54.11 24.5 53.96 25.16 53.66C25.82 53.36 26.31 52.9 26.63 52.27C26.95 51.65 27.11 50.81 27.11 49.75V19.38H35.5V50.99C35.5 53.37 35.13 55.35 34.4 56.94C33.66 58.53 32.49 59.71 30.89 60.48C29.28 61.25 27.2 61.64 24.63 61.64V61.65Z" fill="white"/>
<path d="M61.0601 41.01C60.2501 39.39 59.0201 38.11 57.3801 37.19C55.7401 36.26 53.6501 35.8 51.1201 35.8H46.9801C45.3601 35.8 44.1301 35.48 43.3001 34.84C42.4701 34.2 42.0601 33.14 42.0601 31.67V30.53C42.0601 29.29 42.3201 28.32 42.8501 27.65C43.3801 26.97 44.1401 26.5 45.1501 26.26C46.1501 26.02 47.2901 25.89 48.5801 25.89C50.3901 25.89 52.3701 25.95 54.5001 26.06C56.6401 26.17 58.5701 26.28 60.3101 26.4V19.77C59.2901 19.55 58.0701 19.33 56.6601 19.12C55.2401 18.91 53.7701 18.73 52.2401 18.58C50.7101 18.43 49.1701 18.35 47.6201 18.35C43.3001 18.35 39.9701 19.29 37.6301 21.16V41.43C39.7501 43.01 42.6901 43.8 46.4901 43.8H50.0701C51.4201 43.8 52.4701 44.13 53.2101 44.79C53.9401 45.45 54.3101 46.4 54.3101 47.65V49.18C54.3101 50.28 54.0201 51.14 53.4601 51.76C52.8901 52.39 52.0901 52.82 51.0601 53.07C50.0201 53.31 48.7801 53.44 47.3401 53.44C45.9001 53.44 44.4701 53.42 42.9201 53.38C41.3801 53.34 39.8801 53.28 38.4501 53.21C38.1401 53.2 37.8201 53.18 37.5201 53.16C37.3601 54.61 37.0201 55.88 36.5201 56.97C36.0501 57.98 35.4101 58.82 34.5901 59.51V59.57C35.4601 59.79 36.4201 60 37.4801 60.16C38.5301 60.33 39.6601 60.48 40.8501 60.61C42.0401 60.74 43.2101 60.83 44.3601 60.9C45.5101 60.96 46.6401 60.98 47.7301 60.98C50.6401 60.98 53.1801 60.67 55.3501 60.04C57.5201 59.42 59.2201 58.24 60.4501 56.5C61.6801 54.76 62.2901 52.25 62.2901 48.96V46.58C62.2901 44.51 61.8801 42.65 61.0701 41.03L61.0601 41.01Z" fill="white"/>
</g>
<defs>
<clipPath id="clip0_3_21">
<rect width="80" height="80" fill="white"/>
</clipPath>
</defs>
</svg>
